<svg width="97" height="80" viewBox="0 0 97 80" fill="none" xmlns="http://www.w3.org/2000/svg">
<path d="M22.322 33.9412L49.1921 7.07108C53.0973 3.16583 59.429 3.16583 63.3343 7.07107L90.2044 33.9412L91.2165 34.9533C94.0037 37.7405 94.0037 42.2595 91.2165 45.0467V45.0467L63.3342 72.9289C59.429 76.8342 53.0974 76.8342 49.1921 72.9289L22.322 46.0588" stroke="black" stroke-width="2"/>
<path d="M73.9412 33.9412L47.0711 7.07108C43.1658 3.16583 36.8342 3.16583 32.9289 7.07107L6.05883 33.9412L5.04668 34.9533C2.25948 37.7405 2.25948 42.2595 5.04668 45.0467V45.0467L32.9289 72.9289C36.8342 76.8342 43.1658 76.8342 47.0711 72.9289L73.9412 46.0588" stroke="black" stroke-width="2"/>
<path d="M18.7749 42.4L18.064 40.5836H15.7749L15.0718 42.4H14.3999L16.6577 36.6656H17.2163L19.4624 42.4H18.7749ZM17.8569 39.986L17.1929 38.2164C17.1069 37.9925 17.0184 37.7177 16.9272 37.3922C16.87 37.6422 16.7879 37.917 16.6812 38.2164L16.0093 39.986H17.8569Z" fill="black"/>
<path d="M22.7593 39.4078H24.7007V42.1852C24.3986 42.2815 24.0913 42.3545 23.7788 42.4039C23.4663 42.4534 23.1043 42.4781 22.6929 42.4781C21.8283 42.4781 21.1551 42.2216 20.6733 41.7086C20.1916 41.193 19.9507 40.4716 19.9507 39.5446C19.9507 38.9508 20.0692 38.4313 20.3062 37.986C20.5457 37.538 20.8895 37.1969 21.3374 36.9625C21.7853 36.7255 22.3101 36.6071 22.9116 36.6071C23.521 36.6071 24.0887 36.719 24.6147 36.943L24.3569 37.5289C23.8413 37.3102 23.3452 37.2008 22.8687 37.2008C22.1733 37.2008 21.6304 37.4078 21.2397 37.8219C20.8491 38.236 20.6538 38.8102 20.6538 39.5446C20.6538 40.3154 20.8413 40.9 21.2163 41.2985C21.5939 41.6969 22.1473 41.8961 22.8765 41.8961C23.2723 41.8961 23.659 41.8505 24.0366 41.7594V40.0016H22.7593V39.4078Z" fill="black"/>
<path d="M29.2593 42.4H26.0757V36.6891H29.2593V37.2789H26.7397V39.1188H29.1069V39.7047H26.7397V41.8063H29.2593V42.4Z" fill="black"/>
<path d="M34.9897 42.4H34.2319L31.1108 37.6071H31.0796C31.1213 38.1696 31.1421 38.6852 31.1421 39.1539V42.4H30.5288V36.6891H31.2788L34.3921 41.4625H34.4233C34.4181 41.3922 34.4064 41.167 34.3882 40.7867C34.37 40.4039 34.3634 40.1305 34.3687 39.9664V36.6891H34.9897V42.4Z" fill="black"/>
<path d="M39.0054 37.2008C38.3778 37.2008 37.8817 37.4104 37.5171 37.8297C37.1551 38.2464 36.9741 38.818 36.9741 39.5446C36.9741 40.292 37.1486 40.8701 37.4976 41.2789C37.8491 41.6852 38.3491 41.8883 38.9976 41.8883C39.396 41.8883 39.8504 41.8167 40.3608 41.6735V42.2555C39.965 42.4039 39.4767 42.4781 38.896 42.4781C38.0549 42.4781 37.4051 42.2229 36.9468 41.7125C36.491 41.2021 36.2632 40.4768 36.2632 39.5367C36.2632 38.9482 36.3726 38.4326 36.5913 37.9899C36.8127 37.5472 37.1304 37.206 37.5444 36.9664C37.9611 36.7268 38.4507 36.6071 39.0132 36.6071C39.6121 36.6071 40.1356 36.7164 40.5835 36.9352L40.3022 37.5055C39.87 37.3024 39.4377 37.2008 39.0054 37.2008Z" fill="black"/>
<path d="M43.0601 39.5446L44.5835 36.6891H45.3022L43.396 40.1852V42.4H42.7241V40.2164L40.8218 36.6891H41.5483L43.0601 39.5446Z" fill="black"/>
<path d="M51.3921 40.8805C51.3921 41.3831 51.2098 41.775 50.8452 42.0563C50.4806 42.3375 49.9858 42.4781 49.3608 42.4781C48.6838 42.4781 48.1629 42.3909 47.7983 42.2164V41.5758C48.0327 41.6748 48.2879 41.7529 48.564 41.8102C48.84 41.8675 49.1134 41.8961 49.3843 41.8961C49.827 41.8961 50.1603 41.8128 50.3843 41.6461C50.6082 41.4768 50.7202 41.2425 50.7202 40.943C50.7202 40.7451 50.6799 40.5836 50.5991 40.4586C50.521 40.331 50.3882 40.2138 50.2007 40.1071C50.0158 40.0003 49.7332 39.8792 49.353 39.7438C48.8218 39.5537 48.4416 39.3284 48.2124 39.068C47.9858 38.8076 47.8726 38.4677 47.8726 38.0485C47.8726 37.6084 48.0379 37.2581 48.3687 36.9977C48.6994 36.7373 49.1369 36.6071 49.6812 36.6071C50.2489 36.6071 50.771 36.7112 51.2476 36.9196L51.0405 37.4977C50.5692 37.2998 50.1108 37.2008 49.6655 37.2008C49.314 37.2008 49.0392 37.2763 48.8413 37.4274C48.6434 37.5784 48.5444 37.788 48.5444 38.0563C48.5444 38.2542 48.5809 38.417 48.6538 38.5446C48.7267 38.6696 48.8491 38.7854 49.021 38.8922C49.1955 38.9964 49.4611 39.1123 49.8179 39.2399C50.4168 39.4534 50.8283 39.6826 51.0522 39.9274C51.2788 40.1722 51.3921 40.4899 51.3921 40.8805Z" fill="black"/>
<path d="M55.7437 42.4H52.5601V36.6891H55.7437V37.2789H53.2241V39.1188H55.5913V39.7047H53.2241V41.8063H55.7437V42.4Z" fill="black"/>
<path d="M57.6772 40.025V42.4H57.0132V36.6891H58.5796C59.2801 36.6891 59.797 36.8232 60.1304 37.0914C60.4663 37.3597 60.6343 37.7633 60.6343 38.3024C60.6343 39.0576 60.2515 39.568 59.4858 39.8336L61.0366 42.4H60.2515L58.8687 40.025H57.6772ZM57.6772 39.4547H58.5874C59.0562 39.4547 59.3999 39.3623 59.6187 39.1774C59.8374 38.9899 59.9468 38.7099 59.9468 38.3375C59.9468 37.9599 59.8348 37.6878 59.6108 37.5211C59.3895 37.3545 59.0327 37.2711 58.5405 37.2711H57.6772V39.4547Z" fill="black"/>
<path d="M65.2202 36.6891H65.9351L63.8765 42.4H63.2202L61.1733 36.6891H61.8765L63.189 40.3844C63.34 40.8089 63.4598 41.2216 63.5483 41.6227C63.6421 41.2008 63.7645 40.7802 63.9155 40.361L65.2202 36.6891Z" fill="black"/>
<path d="M66.7241 42.4V36.6891H67.3882V42.4H66.7241Z" fill="black"/>
<path d="M71.4038 37.2008C70.7762 37.2008 70.2801 37.4104 69.9155 37.8297C69.5536 38.2464 69.3726 38.818 69.3726 39.5446C69.3726 40.292 69.547 40.8701 69.896 41.2789C70.2476 41.6852 70.7476 41.8883 71.396 41.8883C71.7944 41.8883 72.2489 41.8167 72.7593 41.6735V42.2555C72.3634 42.4039 71.8752 42.4781 71.2944 42.4781C70.4533 42.4781 69.8036 42.2229 69.3452 41.7125C68.8895 41.2021 68.6616 40.4768 68.6616 39.5367C68.6616 38.9482 68.771 38.4326 68.9897 37.9899C69.2111 37.5472 69.5288 37.206 69.9429 36.9664C70.3595 36.7268 70.8491 36.6071 71.4116 36.6071C72.0106 36.6071 72.534 36.7164 72.9819 36.9352L72.7007 37.5055C72.2684 37.3024 71.8361 37.2008 71.4038 37.2008Z" fill="black"/>
<path d="M77.189 42.4H74.0054V36.6891H77.189V37.2789H74.6694V39.1188H77.0366V39.7047H74.6694V41.8063H77.189V42.4Z" fill="black"/>
<path d="M81.6812 40.8805C81.6812 41.3831 81.4989 41.775 81.1343 42.0563C80.7697 42.3375 80.2749 42.4781 79.6499 42.4781C78.9728 42.4781 78.452 42.3909 78.0874 42.2164V41.5758C78.3218 41.6748 78.577 41.7529 78.853 41.8102C79.1291 41.8675 79.4025 41.8961 79.6733 41.8961C80.1161 41.8961 80.4494 41.8128 80.6733 41.6461C80.8973 41.4768 81.0093 41.2425 81.0093 40.943C81.0093 40.7451 80.9689 40.5836 80.8882 40.4586C80.8101 40.331 80.6772 40.2138 80.4897 40.1071C80.3048 40.0003 80.0223 39.8792 79.6421 39.7438C79.1108 39.5537 78.7306 39.3284 78.5015 39.068C78.2749 38.8076 78.1616 38.4677 78.1616 38.0485C78.1616 37.6084 78.327 37.2581 78.6577 36.9977C78.9884 36.7373 79.4259 36.6071 79.9702 36.6071C80.5379 36.6071 81.0601 36.7112 81.5366 36.9196L81.3296 37.4977C80.8582 37.2998 80.3999 37.2008 79.9546 37.2008C79.603 37.2008 79.3283 37.2763 79.1304 37.4274C78.9325 37.5784 78.8335 37.788 78.8335 38.0563C78.8335 38.2542 78.87 38.417 78.9429 38.5446C79.0158 38.6696 79.1382 38.7854 79.3101 38.8922C79.4845 38.9964 79.7502 39.1123 80.1069 39.2399C80.7059 39.4534 81.1173 39.6826 81.3413 39.9274C81.5679 40.1722 81.6812 40.4899 81.6812 40.8805Z" fill="black"/>
<path d="M42.3705 24.9203H44.0832L41.3637 32.9203H39.5141L36.8 24.9203H38.5128L40.0176 29.6809C40.1015 29.9618 40.1872 30.2901 40.2747 30.6658C40.3659 31.0379 40.4225 31.2969 40.4444 31.4429C40.4845 31.1072 40.6213 30.5199 40.8548 29.6809L42.3705 24.9203Z" fill="black"/>
<path d="M51.5306 32.9203H49.6044L47.5087 29.5496L46.7918 30.0639V32.9203H45.0955V24.9203H46.7918V28.581L47.4594 27.6399L49.6263 24.9203H51.5087L48.718 28.4606L51.5306 32.9203Z" fill="black"/>
<path d="M57.101 24.9203H58.8137L56.0942 32.9203H54.2446L51.5306 24.9203H53.2433L54.7481 29.6809C54.832 29.9618 54.9177 30.2901 55.0052 30.6658C55.0964 31.0379 55.153 31.2969 55.1749 31.4429C55.215 31.1072 55.3518 30.5199 55.5853 29.6809L57.101 24.9203Z" fill="black"/>
</svg>
